<svg xmlns="http://www.w3.org/2000/svg" viewBox="0 0 440 440" font-family="sans-serif" font-size="12">
<rect x="0" y="0" width="440" height="440" fill="white"/>
<line x1="50" y1="50" x2="50" y2="390" stroke="#222"/>
<line x1="50" y1="390" x2="390" y2="390" stroke="#222"/>
<line x1="50" y1="390" x2="390" y2="50" stroke="#bbb" stroke-dasharray="4 4"/>
<text x="220.0" y="428" text-anchor="middle">False-alarm rate (FPR)</text>
<text x="14" y="220.0" text-anchor="middle" transform="rotate(-90 14 220.0)">Recall (TPR)</text>
<text x="50.0" y="406" text-anchor="middle" fill="#555">0.0</text>
<text x="42" y="394.0" text-anchor="end" fill="#555">0.0</text>
<text x="220.0" y="406" text-anchor="middle" fill="#555">0.5</text>
<text x="42" y="224.0" text-anchor="end" fill="#555">0.5</text>
<text x="390.0" y="406" text-anchor="middle" fill="#555">1.0</text>
<text x="42" y="54.0" text-anchor="end" fill="#555">1.0</text>
<polyline points="50.0,390.0 50.0,387.7 50.0,156.5 52.6,156.5 52.6,145.2 55.2,145.2 55.2,124.8 57.8,124.8 57.8,120.3 60.5,120.3 60.5,115.7 63.1,115.7 63.1,108.9 65.7,108.9 65.7,97.6 73.5,97.6 73.5,90.8 76.2,90.8 76.2,88.5 78.8,88.5 78.8,84.0 84.0,84.0 84.0,81.7 104.9,81.7 104.9,77.2 112.8,77.2 112.8,74.9 118.0,74.9 118.0,68.1 138.9,68.1 138.9,65.9 144.2,65.9 144.2,63.6 152.0,63.6 152.0,61.3 154.6,61.3 154.6,59.1 157.2,59.1 157.2,56.8 167.7,56.8 167.7,54.5 175.5,54.5 175.5,52.3 199.1,52.3 199.1,50.0 390.0,50.0" fill="none" stroke="#2563eb" stroke-width="2"/>
<rect x="60" y="47" width="12" height="3" fill="#2563eb"/>
<text x="78" y="52">in_distribution (AUROC 0.97)</text>
</svg>