<svg xmlns="http://www.w3.org/2000/svg" viewBox="0 0 440 440" font-family="sans-serif" font-size="12">
<rect x="0" y="0" width="440" height="440" fill="white"/>
<line x1="50" y1="50" x2="50" y2="390" stroke="#222"/>
<line x1="50" y1="390" x2="390" y2="390" stroke="#222"/>
<line x1="50" y1="390" x2="390" y2="50" stroke="#bbb" stroke-dasharray="4 4"/>
<text x="220.0" y="428" text-anchor="middle">False-alarm rate (FPR)</text>
<text x="14" y="220.0" text-anchor="middle" transform="rotate(-90 14 220.0)">Recall (TPR)</text>
<text x="50.0" y="406" text-anchor="middle" fill="#555">0.0</text>
<text x="42" y="394.0" text-anchor="end" fill="#555">0.0</text>
<text x="220.0" y="406" text-anchor="middle" fill="#555">0.5</text>
<text x="42" y="224.0" text-anchor="end" fill="#555">0.5</text>
<text x="390.0" y="406" text-anchor="middle" fill="#555">1.0</text>
<text x="42" y="54.0" text-anchor="end" fill="#555">1.0</text>
<polyline points="50.0,390.0 51.1,390.0 57.9,390.0 57.9,388.9 60.2,388.9 60.2,386.6 61.3,386.6 61.3,383.2 63.6,383.2 63.6,382.1 68.1,382.1 68.1,380.9 69.3,380.9 69.3,379.8 71.5,379.8 71.5,378.7 72.7,378.7 72.7,375.3 73.8,375.3 73.8,373.0 76.1,373.0 76.1,369.6 80.6,369.6 80.6,368.5 81.7,368.5 81.7,367.3 84.0,367.3 84.0,365.1 85.1,365.1 85.1,360.5 86.3,360.5 86.3,359.4 87.4,359.4 87.4,358.3 88.5,358.3 88.5,357.1 90.8,357.1 90.8,356.0 91.9,356.0 91.9,354.9 94.2,354.9 94.2,352.6 95.3,352.6 95.3,351.5 98.7,351.5 98.7,349.2 99.9,349.2 99.9,345.8 102.1,345.8 102.1,342.4 108.9,342.4 108.9,341.3 110.1,341.3 110.1,335.6 111.2,335.6 111.2,328.8 113.5,328.8 113.5,326.5 116.9,326.5 116.9,324.3 119.1,324.3 119.1,322.0 120.3,322.0 120.3,320.9 129.3,320.9 129.3,317.5 135.0,317.5 135.0,316.3 137.3,316.3 137.3,312.9 138.4,312.9 138.4,309.5 140.7,309.5 140.7,307.3 145.2,307.3 145.2,305.0 146.3,305.0 146.3,303.9 147.5,303.9 147.5,302.7 149.7,302.7 149.7,301.6 150.9,301.6 150.9,300.5 153.1,300.5 153.1,294.8 155.4,294.8 155.4,293.7 156.5,293.7 156.5,291.4 158.8,291.4 158.8,290.3 159.9,290.3 159.9,286.9 161.1,286.9 161.1,285.7 162.2,285.7 162.2,283.5 164.5,283.5 164.5,282.3 165.6,282.3 165.6,281.2 166.7,281.2 166.7,280.1 167.9,280.1 167.9,278.9 171.3,278.9 171.3,276.7 172.4,276.7 172.4,274.4 173.5,274.4 173.5,271.0 176.9,271.0 176.9,268.7 181.5,268.7 181.5,264.2 184.9,264.2 184.9,263.1 186.0,263.1 186.0,260.8 188.3,260.8 188.3,251.7 190.5,251.7 190.5,250.6 191.7,250.6 191.7,243.8 193.9,243.8 193.9,242.7 196.2,242.7 196.2,239.3 198.5,239.3 198.5,238.1 199.6,238.1 199.6,235.9 201.9,235.9 201.9,234.7 203.0,234.7 203.0,233.6 206.4,233.6 206.4,229.1 207.5,229.1 207.5,225.7 209.8,225.7 209.8,224.5 214.3,224.5 214.3,223.4 216.6,223.4 216.6,220.0 218.9,220.0 218.9,218.9 220.0,218.9 220.0,216.6 222.3,216.6 222.3,212.1 223.4,212.1 223.4,209.8 224.5,209.8 224.5,207.5 225.7,207.5 225.7,206.4 229.1,206.4 229.1,201.9 231.3,201.9 231.3,198.5 235.9,198.5 235.9,197.3 238.1,197.3 238.1,196.2 239.3,196.2 239.3,195.1 240.4,195.1 240.4,193.9 241.5,193.9 241.5,192.8 243.8,192.8 243.8,191.7 246.1,191.7 246.1,190.5 247.2,190.5 247.2,189.4 248.3,189.4 248.3,188.3 249.5,188.3 249.5,187.1 250.6,187.1 250.6,186.0 254.0,186.0 254.0,182.6 255.1,182.6 255.1,178.1 258.5,178.1 258.5,174.7 259.7,174.7 259.7,172.4 263.1,172.4 263.1,169.0 265.3,169.0 265.3,166.7 266.5,166.7 266.5,164.5 271.0,164.5 271.0,163.3 272.1,163.3 272.1,162.2 274.4,162.2 274.4,161.1 275.5,161.1 275.5,156.5 276.7,156.5 276.7,155.4 280.1,155.4 280.1,154.3 286.9,154.3 286.9,153.1 291.4,153.1 291.4,149.7 292.5,149.7 292.5,147.5 294.8,147.5 294.8,146.3 297.1,146.3 297.1,145.2 300.5,145.2 300.5,144.1 301.6,144.1 301.6,141.8 309.5,141.8 309.5,137.3 315.2,137.3 315.2,136.1 316.3,136.1 316.3,133.9 317.5,133.9 317.5,132.7 318.6,132.7 318.6,131.6 320.9,131.6 320.9,128.2 322.0,128.2 322.0,123.7 323.1,123.7 323.1,122.5 325.4,122.5 325.4,112.3 326.5,112.3 326.5,111.2 327.7,111.2 327.7,103.3 328.8,103.3 328.8,102.1 334.5,102.1 334.5,98.7 335.6,98.7 335.6,95.3 336.7,95.3 336.7,94.2 344.7,94.2 344.7,91.9 345.8,91.9 345.8,89.7 349.2,89.7 349.2,86.3 350.3,86.3 350.3,84.0 352.6,84.0 352.6,79.5 354.9,79.5 354.9,76.1 358.3,76.1 358.3,74.9 359.4,74.9 359.4,73.8 360.5,73.8 360.5,72.7 362.8,72.7 362.8,67.0 373.0,67.0 373.0,65.9 374.1,65.9 374.1,64.7 375.3,64.7 375.3,60.2 376.4,60.2 376.4,59.1 380.9,59.1 380.9,56.8 382.1,56.8 382.1,54.5 384.3,54.5 384.3,52.3 386.6,52.3 386.6,50.0 390.0,50.0" fill="none" stroke="#2563eb" stroke-width="2"/>
<rect x="60" y="47" width="12" height="3" fill="#2563eb"/>
<text x="78" y="52">in_distribution (AUROC 0.49)</text>
</svg>