<svg xmlns="http://www.w3.org/2000/svg" viewBox="0 0 440 440" font-family="sans-serif" font-size="12">
<rect x="0" y="0" width="440" height="440" fill="white"/>
<line x1="50" y1="50" x2="50" y2="390" stroke="#222"/>
<line x1="50" y1="390" x2="390" y2="390" stroke="#222"/>
<line x1="50" y1="390" x2="390" y2="50" stroke="#bbb" stroke-dasharray="4 4"/>
<text x="220.0" y="428" text-anchor="middle">False-alarm rate (FPR)</text>
<text x="14" y="220.0" text-anchor="middle" transform="rotate(-90 14 220.0)">Recall (TPR)</text>
<text x="50.0" y="406" text-anchor="middle" fill="#555">0.0</text>
<text x="42" y="394.0" text-anchor="end" fill="#555">0.0</text>
<text x="220.0" y="406" text-anchor="middle" fill="#555">0.5</text>
<text x="42" y="224.0" text-anchor="end" fill="#555">0.5</text>
<text x="390.0" y="406" text-anchor="middle" fill="#555">1.0</text>
<text x="42" y="54.0" text-anchor="end" fill="#555">1.0</text>
<polyline points="50.0,390.0 55.7,384.3 56.8,384.3 59.1,383.2 59.1,380.9 60.2,380.9 60.2,379.8 62.5,379.8 62.5,377.5 64.7,377.5 64.7,376.4 67.0,376.4 67.0,374.1 68.1,374.1 68.1,371.9 69.3,371.9 69.3,370.7 70.4,370.7 70.4,368.5 71.5,368.5 71.5,361.7 72.7,361.7 72.7,359.4 73.8,359.4 73.8,358.3 74.9,358.3 74.9,357.1 76.1,357.1 76.1,351.5 80.6,351.5 80.6,350.3 84.0,350.3 84.0,346.9 87.4,346.9 87.4,344.7 90.8,344.7 90.8,343.5 99.9,343.5 99.9,341.3 101.0,341.3 101.0,340.1 102.1,340.1 102.1,337.9 105.5,337.9 105.5,336.7 106.7,336.7 106.7,335.6 107.8,335.6 107.8,333.3 110.1,333.3 110.1,332.2 111.2,332.2 111.2,331.1 112.3,331.1 112.3,329.9 114.6,329.9 114.6,326.5 115.7,326.5 115.7,323.1 119.1,323.1 119.1,319.7 120.3,319.7 120.3,318.6 122.5,318.6 122.5,317.5 125.9,317.5 125.9,308.4 127.1,308.4 127.1,307.3 128.2,307.3 128.2,305.0 131.6,305.0 131.6,294.8 133.9,294.8 133.9,292.5 135.0,292.5 135.0,290.3 136.1,290.3 136.1,285.7 139.5,285.7 139.5,282.3 140.7,282.3 140.7,281.2 142.9,281.2 142.9,278.9 144.1,278.9 144.1,277.8 147.5,277.8 147.5,275.5 148.6,275.5 148.6,274.4 149.7,274.4 149.7,273.3 152.0,273.3 152.0,271.0 153.1,271.0 153.1,267.6 157.7,267.6 157.7,266.5 158.8,266.5 158.8,263.1 161.1,263.1 161.1,259.7 162.2,259.7 162.2,257.4 163.3,257.4 163.3,254.0 164.5,254.0 164.5,252.9 165.6,252.9 165.6,243.8 167.9,243.8 167.9,238.1 170.1,238.1 170.1,234.7 174.7,234.7 174.7,233.6 176.9,233.6 176.9,232.5 178.1,232.5 178.1,229.1 180.3,229.1 180.3,226.8 181.5,226.8 181.5,224.5 182.6,224.5 182.6,223.4 184.9,223.4 184.9,221.1 191.7,221.1 191.7,220.0 193.9,220.0 193.9,216.6 196.2,216.6 196.2,213.2 197.3,213.2 197.3,212.1 198.5,212.1 198.5,209.8 200.7,209.8 200.7,208.7 205.3,208.7 205.3,207.5 207.5,207.5 207.5,206.4 208.7,206.4 208.7,203.0 210.9,203.0 210.9,200.7 212.1,200.7 212.1,199.6 213.2,199.6 213.2,198.5 216.6,198.5 216.6,196.2 217.7,196.2 217.7,195.1 218.9,195.1 218.9,193.9 226.8,193.9 226.8,187.1 233.6,187.1 233.6,181.5 234.7,181.5 234.7,178.1 238.1,178.1 238.1,174.7 239.3,174.7 239.3,173.5 240.4,173.5 240.4,172.4 242.7,172.4 242.7,170.1 244.9,170.1 244.9,167.9 248.3,167.9 248.3,165.6 251.7,165.6 251.7,164.5 252.9,164.5 252.9,161.1 254.0,161.1 254.0,159.9 255.1,159.9 255.1,158.8 263.1,158.8 263.1,157.7 264.2,157.7 264.2,156.5 265.3,156.5 265.3,155.4 267.6,155.4 267.6,154.3 275.5,154.3 275.5,153.1 276.7,153.1 276.7,152.0 277.8,152.0 277.8,148.6 281.2,148.6 281.2,140.7 283.5,140.7 283.5,139.5 284.6,139.5 284.6,138.4 290.3,138.4 290.3,137.3 292.5,137.3 292.5,135.0 295.9,135.0 295.9,127.1 298.2,127.1 298.2,125.9 299.3,125.9 299.3,124.8 301.6,124.8 301.6,123.7 306.1,123.7 306.1,121.4 307.3,121.4 307.3,119.1 308.4,119.1 308.4,118.0 311.8,118.0 311.8,116.9 315.2,116.9 315.2,114.6 323.1,114.6 323.1,113.5 324.3,113.5 324.3,112.3 329.9,112.3 329.9,111.2 331.1,111.2 331.1,110.1 334.5,110.1 334.5,108.9 335.6,108.9 335.6,107.8 336.7,107.8 336.7,101.0 337.9,101.0 337.9,98.7 341.3,98.7 341.3,97.6 342.4,97.6 342.4,95.3 343.5,95.3 343.5,94.2 344.7,94.2 344.7,86.3 345.8,86.3 345.8,85.1 346.9,85.1 346.9,84.0 349.2,84.0 349.2,80.6 351.5,80.6 351.5,79.5 352.6,79.5 352.6,78.3 354.9,78.3 354.9,77.2 358.3,77.2 358.3,74.9 359.4,74.9 359.4,73.8 361.7,73.8 361.7,70.4 362.8,70.4 362.8,67.0 366.2,67.0 366.2,65.9 367.3,65.9 367.3,64.7 373.0,64.7 373.0,63.6 374.1,63.6 374.1,62.5 375.3,62.5 375.3,60.2 378.7,60.2 378.7,59.1 382.1,59.1 382.1,55.7 384.3,55.7 384.3,53.4 388.9,53.4 388.9,51.1 390.0,51.1 390.0,50.0" fill="none" stroke="#2563eb" stroke-width="2"/>
<rect x="60" y="47" width="12" height="3" fill="#2563eb"/>
<text x="78" y="52">in_distribution (AUROC 0.54)</text>
</svg>